# xmcd
#
# Track frame offsets:
# 150
# 17867
# 39483
# 54630
#
# Disc length: 962 seconds
#
#
# Revision: 0
# Processed by: cddbd v1.5.2PL0 Copyright (c) Steve Scherf et al.
# Submitted via: FreeRIP 2.941 
#
DISCID=2d03c004
DTITLE=Mysterious Lady Singer - 4 Mysterious Songs
DYEAR=2002
DGENRE=Country
TTITLE0=Mustangs in My Dreams
TTITLE1=From California
TTITLE2=It Was Me
TTITLE3=There's Only Been You
EXTD=found at a thrift store in Camdenton MO in late 2019
EXTT0=
EXTT1=
EXTT2=
EXTT3=
PLAYORDER=
